<?xml version="1.0" encoding="UTF-8"?>
<svg width="32" height="32" viewBox="0 0 32 32" fill="none" xmlns="http://www.w3.org/2000/svg">
  <!-- Фон -->
  <rect width="32" height="32" rx="6" fill="#e8d9c0"/>
  
  <!-- Книга -->
  <path d="M7 8V24C7 24.5523 7.44772 25 8 25H24C24.5523 25 25 24.5523 25 24V8C25 7.44772 24.5523 7 24 7H8C7.44772 7 7 7.44772 7 8Z" fill="white"/>
  
  <!-- Страницы книги -->
  <path d="M16 7V25" stroke="#718096" stroke-width="0.5"/>
  
  <!-- Буква "П" -->
  <path d="M12 12H14V18H12V12ZM14 12H16V13H14V12ZM12 12H14V13H12V12Z" fill="#718096"/>
  
  <!-- Буква "В" -->
  <path d="M18 12H20V18H18V12ZM20 12H22V13H20V12ZM20 14.5H22V15.5H20V14.5ZM20 17H22V18H20V17ZM18 12H20V13H18V12Z" fill="#718096"/>
</svg> 